# xmcd
#
# Track frame offsets: 
#        187
#        12810
#        29775
#        46887
#        69262
#        90190
#        107685
#        127505
#        148337
#        168852
#        189095
#        217432
#        238165
#        284942
#        309690
#
# Disc length: 4373 seconds
#
# Revision: 5
# Processed by: cddbd v1.5.2PL0 Copyright (c) Steve Scherf et al.
# Submitted via: ExactAudioCopy v1.0b3
#
DISCID=d611130f
DTITLE=The Chieftains - Tears of Stone
DYEAR=1999
DGENRE=Celtic
TTITLE0=Never Give All The Heart(with Brenda Fricker and Anuna)
TTITLE1=A Stor Mo Chroi(with Bonnie Raitt)
TTITLE2=The Lowlands Of Holland(with Natalie Merchant)
TTITLE3=The Magdalene Laundries(with Joni Mitchell)
TTITLE4=Jimmy Mo Love(with The Rankins)
TTITLE5=I Know My Love(wit The Corrs)
TTITLE6=Factory Girl(with Sinead O'Connor)
TTITLE7=Deserted Soldier(with Mary Chapin Carpenter)
TTITLE8=Ye Rambling Boys Of Pleasure(with Loreena McKennitt)
TTITLE9=Sake In The Jar(with 矢野顕子)
TTITLE10=Raglan Road(with Joan Osborne)
TTITLE11=Siuil A Run(with Sissel)
TTITLE12=The Fiddling Ladies(with Eileen Ivers, Natalie MacMaster, Mai
TTITLE12=re Breatnach, Annbjorg Lien)
TTITLE13=Danny Boy(with Diana Krall)
TTITLE14=Tear Lake(with Dadawa and Anuna)
EXTD=
EXTT0=
EXTT1=
EXTT2=
EXTT3=
EXTT4=
EXTT5=
EXTT6=
EXTT7=
EXTT8=
EXTT9=
EXTT10=
EXTT11=
EXTT12=
EXTT13=
EXTT14=
PLAYORDER=
